<svg xmlns="http://www.w3.org/2000/svg" xmlns:xlink="http://www.w3.org/1999/xlink" width="576" height="360" viewBox="0 0 576 360">
    <defs>
        <filter id="j0llf5d2qa" width="113.5%" height="122.5%" x="-6.7%" y="-7.5%" filterUnits="objectBoundingBox">
            <feOffset dy="12" in="SourceAlpha" result="shadowOffsetOuter1"/>
            <feGaussianBlur in="shadowOffsetOuter1" result="shadowBlurOuter1" stdDeviation="10"/>
            <feColorMatrix in="shadowBlurOuter1" values="0 0 0 0 0 0 0 0 0 0 0 0 0 0 0 0 0 0 0.0387893357 0"/>
        </filter>
        <rect id="ajzajf8sxb" width="535" height="320" x=".945" y="0" rx="20"/>
    </defs>
    <g fill="none" fill-rule="evenodd">
        <g>
            <g>
                <g>
                    <g transform="translate(-144 -2650) translate(0 1362) translate(164 1261) translate(0 35)">
                        <g>
                            <use fill="#000" filter="url(#j0llf5d2qa)" xlink:href="#ajzajf8sxb"/>
                            <use fill="#FFF" xlink:href="#ajzajf8sxb"/>
                        </g>
                        <path fill="#FAFBFD" d="M20.945 0h495c11.046 0 20 8.954 20 20v10h-535V20c0-11.046 8.954-20 20-20z"/>
                        <circle cx="26.945" cy="15" r="6" fill="#ECF0FB"/>
                        <circle cx="48.945" cy="15" r="6" fill="#ECF0FB"/>
                        <circle cx="70.945" cy="15" r="6" fill="#ECF0FB"/>
                        <path fill="#F1B2A3" d="M84.616 111.538h303.393c1.227 0 2.223-.994 2.223-2.222 0-1.227-.996-2.223-2.223-2.223H84.616c-1.229 0-2.222.996-2.222 2.223 0 1.228.993 2.222 2.222 2.222"/>
                        <path fill="#68406D" d="M406.41 111.538h23.38c1.226 0 2.222-.994 2.222-2.222 0-1.227-.996-2.223-2.223-2.223h-23.38c-1.229 0-2.222.996-2.222 2.223 0 1.228.993 2.222 2.222 2.222M442.918 111.538h29.845c1.226 0 2.222-.994 2.222-2.222 0-1.227-.996-2.223-2.222-2.223h-29.845c-1.226 0-2.222.996-2.222 2.223 0 1.228.996 2.222 2.222 2.222"/>
                        <path fill="#9C91DB" d="M84.616 135.413H274.42c1.227 0 2.223-.995 2.223-2.222 0-1.229-.996-2.222-2.223-2.222H84.616c-1.229 0-2.222.993-2.222 2.222 0 1.227.993 2.222 2.222 2.222M302.66 135.413h34.02c1.227 0 2.223-.995 2.223-2.222 0-1.229-.996-2.222-2.223-2.222h-34.02c-1.228 0-2.222.993-2.222 2.222 0 1.227.994 2.222 2.222 2.222M336.68 144.696h-92.357c-1.227 0-2.223.995-2.223 2.222 0 1.226.996 2.222 2.223 2.222h92.357c1.227 0 2.223-.996 2.223-2.222 0-1.227-.996-2.222-2.223-2.222M231.634 144.696h-18.611c-1.23 0-2.223.995-2.223 2.222 0 1.226.994 2.222 2.223 2.222h18.61c1.227 0 2.223-.996 2.223-2.222 0-1.227-.996-2.222-2.222-2.222M198.236 144.696h-18.611c-1.227 0-2.222.995-2.222 2.222 0 1.226.995 2.222 2.222 2.222h18.611c1.229 0 2.222-.996 2.222-2.222 0-1.227-.993-2.222-2.222-2.222M164.84 144.696h-18.61c-1.23 0-2.223.995-2.223 2.222 0 1.226.993 2.222 2.222 2.222h18.611c1.227 0 2.223-.996 2.223-2.222 0-1.227-.996-2.222-2.223-2.222M84.832 144.696c-1.227 0-2.223.995-2.223 2.222 0 1.226.996 2.222 2.223 2.222h46.61c1.23 0 2.223-.996 2.223-2.222 0-1.227-.993-2.222-2.222-2.222H84.832z"/>
                        <path fill="#C3E2EF" d="M400.654 170.387H112.832c-1.227 0-2.223.993-2.223 2.222 0 1.227.996 2.222 2.223 2.222h287.822c1.229 0 2.222-.995 2.222-2.222 0-1.229-.993-2.222-2.222-2.222"/>
                        <path fill="#9C91DB" d="M91.33 170.387h-6.714c-1.229 0-2.222.993-2.222 2.222 0 1.227.993 2.222 2.222 2.222h6.713c1.23 0 2.223-.995 2.223-2.222 0-1.229-.994-2.222-2.223-2.222M91.33 187.076h-6.714c-1.229 0-2.222.995-2.222 2.222 0 1.229.993 2.222 2.222 2.222h6.713c1.23 0 2.223-.993 2.223-2.222 0-1.227-.994-2.222-2.223-2.222M91.33 203.767h-6.714c-1.229 0-2.222.995-2.222 2.222 0 1.227.993 2.222 2.222 2.222h6.713c1.23 0 2.223-.995 2.223-2.222 0-1.227-.994-2.222-2.223-2.222M90.936 222h-6.714c-1.229 0-2.222.996-2.222 2.222 0 1.23.993 2.222 2.222 2.222h6.714c1.228 0 2.222-.993 2.222-2.222 0-1.226-.994-2.222-2.222-2.222M90.936 238.691h-6.714c-1.229 0-2.222.996-2.222 2.222 0 1.227.993 2.223 2.222 2.223h6.714c1.228 0 2.222-.996 2.222-2.223 0-1.226-.994-2.222-2.222-2.222"/>
                        <path fill="#C3E2EF" d="M418.098 174.831h39.742c1.227 0 2.223-.995 2.223-2.222 0-1.229-.996-2.222-2.223-2.222h-39.742c-1.226 0-2.222.993-2.222 2.222 0 1.227.996 2.222 2.222 2.222M112.145 191.52h79.638c1.226 0 2.222-.993 2.222-2.222 0-1.227-.996-2.222-2.222-2.222h-79.638c-1.229 0-2.222.995-2.222 2.222 0 1.229.993 2.222 2.222 2.222"/>
                        <path fill="#A0D4D3" d="M84.612 91.534h79.638c1.227 0 2.222-.993 2.222-2.222 0-1.226-.995-2.222-2.222-2.222H84.612c-1.229 0-2.222.996-2.222 2.222 0 1.23.993 2.222 2.222 2.222"/>
                        <g fill="#C3E2EF">
                            <path d="M2.222 39.053H164.31c1.227 0 2.222-.993 2.222-2.222 0-1.227-.995-2.222-2.222-2.222H2.222C.996 34.609 0 35.604 0 36.83c0 1.229.996 2.222 2.222 2.222M98.313 21.953h65.996c1.227 0 2.222-.993 2.222-2.222 0-1.227-.995-2.222-2.222-2.222H98.313c-1.226 0-2.222.995-2.222 2.222 0 1.229.996 2.222 2.222 2.222M138.109 4.444h26.2c1.227 0 2.222-.995 2.222-2.222 0-1.226-.995-2.222-2.222-2.222h-26.2c-1.227 0-2.222.996-2.222 2.222 0 1.227.995 2.222 2.222 2.222" transform="matrix(-1 0 0 1 276.1 203.767)"/>
                        </g>
                        <path fill="#FAFBFD" d="M.945 300h535c0 11.046-8.954 20-20 20h-495c-11.046 0-20-8.954-20-20z"/>
                        <rect width="16" height="16" x="6.945" y="36" fill="#FAFBFD" rx="4"/>
                        <rect width="16" height="16" x="6.945" y="58" fill="#ECF0FB" rx="4"/>
                        <rect width="16" height="16" x="6.945" y="80" fill="#ECF0FB" rx="4"/>
                        <rect width="16" height="16" x="6.945" y="102" fill="#ECF0FB" rx="4"/>
                        <rect width="16" height="16" x="6.945" y="278" fill="#ECF0FB" rx="4"/>
                        <circle cx="500.945" cy="310" r="3" fill="#ECF0FB"/>
                        <circle cx="478.945" cy="310" r="3" fill="#ECF0FB"/>
                        <circle cx="456.945" cy="310" r="3" fill="#ECF0FB"/>
                        <rect width="20" height="6" x="411.945" y="307" fill="#ECF0FB" rx="3"/>
                        <circle cx="57.945" cy="310" r="3" fill="#ECF0FB"/>
                        <circle cx="35.945" cy="310" r="3" fill="#ECF0FB"/>
                        <rect width="20" height="6" x="369.945" y="307" fill="#ECF0FB" rx="3"/>
                        <rect width="20" height="6" x="327.945" y="307" fill="#ECF0FB" rx="3"/>
                        <rect width="20" height="6" x="285.945" y="307" fill="#ECF0FB" rx="3"/>
                    </g>
                </g>
            </g>
        </g>
    </g>
</svg>
