<svg xmlns="http://www.w3.org/2000/svg" width="37" height="39" viewBox="0 0 37 39">
    <g fill="#FFF" fill-rule="evenodd">
        <path d="M8.306 36.62c1.073 0 1.944.87 1.944 1.945H6.361c0-1.074.87-1.945 1.945-1.945zM18.676 36.62c1.074 0 1.944.87 1.944 1.945h-3.889c0-1.074.871-1.945 1.945-1.945z"/>
        <path d="M13.49 25.926c6.981 0 12.64 5.659 12.64 12.639h-2.593c0-1.79-1.45-3.24-3.24-3.24H6.684c-1.79 0-3.24 1.45-3.24 3.24H.851c0-6.98 5.658-12.64 12.639-12.64z"/>
        <path fill-rule="nonzero" d="M27.296 36.487c1.612-.88 4.587-2.658 6.047-4.027 1.46-1.37 3.657-4.23 2.906-7.294-.75-3.063-2.45-4.525-5.156-5.4-2.708-.876-4.963-.876-7.556-1.87-2.593-.995-3.939-1.985-5.546-3.286-1.608-1.302-2.16-2.705-2.16-4.608 0-1.904.422-2.924 2.16-4.007 1.738-1.082 5.088-1.034 7.368 0 2.28 1.035 4.68 4.007 5.195 4.694 0 0 .334-1.578 1.313-2.865.653-.858 1.442-1.468 2.368-1.829-.353-.513-.756-1.08-1.207-1.702-.677-.932-1.501-1.717-2.474-2.355-.972-.638-2.1-1.12-3.385-1.447C25.885.164 24.427 0 22.795 0c-1.805 0-3.407.22-4.804.662-1.398.442-2.574 1.051-3.528 1.828-.955.777-1.68 1.697-2.175 2.76-.494 1.063-.742 2.216-.742 3.46 0 1.242.274 2.342.82 3.3.547.956 1.263 1.823 2.149 2.6.885.777 1.896 1.48 3.033 2.11 1.137.63 2.296 1.23 3.476 1.803 1.18.572 2.34 1.145 3.476 1.717 1.137.572 2.149 1.182 3.034 1.828.885.646 1.503 1.127 2.05 1.904.546.776.73 1.408.73 2.214 0 .807-.329 1.49-.73 2.043-.402.553-1.127 1.102-1.945 1.465-.818.364-1.481.785-2.806.785 0 0 1.052 1.412 1.616 2.842.376.954.658 2.01.847 3.166z"/>
    </g>
</svg>
