<svg xmlns="http://www.w3.org/2000/svg" width="39" height="46" viewBox="0 0 39 46">
    <g fill-rule="evenodd">
        <path d="M8.088 43.521c1.165 0 2.11 1.035 2.11 2.311h-4.22c0-1.276.944-2.31 2.11-2.31zM19.34 43.521c1.166 0 2.11 1.035 2.11 2.311h-4.22c0-1.276.945-2.31 2.11-2.31z"/>
        <path d="M13.714 30.812c7.575 0 13.715 6.725 13.715 15.02h-2.813c0-2.127-1.725-3.851-3.852-3.851h-14.1c-2.127 0-3.851 1.724-3.851 3.851H0c0-8.295 6.14-15.02 13.714-15.02z"/>
        <path fill-rule="nonzero" fill="#6069e8" d="M28.695 43.363c1.748-1.045 4.977-3.159 6.56-4.786 1.585-1.628 3.97-5.028 3.155-8.668-.815-3.64-2.658-5.378-5.596-6.419-2.938-1.04-5.385-1.04-8.198-2.222-2.814-1.182-4.274-2.359-6.019-3.905-1.744-1.547-2.342-3.215-2.342-5.477 0-2.262.457-3.474 2.342-4.76 1.886-1.287 5.521-1.23 7.996 0 2.474 1.229 5.078 4.76 5.637 5.578 0 0 .362-1.877 1.425-3.406.708-1.02 1.565-1.744 2.568-2.173-.383-.61-.819-1.284-1.309-2.023-.734-1.108-1.629-2.04-2.684-2.799-1.055-.758-2.28-1.331-3.673-1.72C27.163.194 25.581 0 23.81 0c-1.959 0-3.696.262-5.213.787-1.516.525-2.792 1.25-3.828 2.172-1.036.924-1.823 2.017-2.36 3.28-.536 1.264-.805 2.634-.805 4.112 0 1.477.297 2.784.89 3.921.594 1.137 1.37 2.167 2.331 3.09.961.924 2.058 1.76 3.292 2.508 1.234.749 2.491 1.463 3.772 2.143 1.28.68 2.538 1.36 3.772 2.041 1.234.68 2.33 1.405 3.292 2.172.96.768 1.63 1.34 2.223 2.263.594.923.792 1.673.792 2.632 0 .959-.356 1.77-.792 2.428-.435.657-1.222 1.31-2.11 1.741-.887.432-1.607.933-3.044.933 0 0 1.142 1.677 1.753 3.378.408 1.133.714 2.387.92 3.762z"/>
    </g>
</svg>
