<svg xmlns="http://www.w3.org/2000/svg" xmlns:xlink="http://www.w3.org/1999/xlink" width="576" height="360" viewBox="0 0 576 360">
    <defs>
        <filter id="xcbrtfzl8a" width="113.5%" height="122.5%" x="-6.7%" y="-7.5%" filterUnits="objectBoundingBox">
            <feOffset dy="12" in="SourceAlpha" result="shadowOffsetOuter1"/>
            <feGaussianBlur in="shadowOffsetOuter1" result="shadowBlurOuter1" stdDeviation="10"/>
            <feColorMatrix in="shadowBlurOuter1" values="0 0 0 0 0 0 0 0 0 0 0 0 0 0 0 0 0 0 0.0387893357 0"/>
        </filter>
        <rect id="f3dbwmfktb" width="535" height="320" x="0" y="0" rx="20"/>
    </defs>
    <g fill="none" fill-rule="evenodd">
        <g>
            <g>
                <g>
                    <g transform="translate(-719 -2175) translate(0 1362) translate(739 821) translate(.938)">
                        <g>
                            <use fill="#000" filter="url(#xcbrtfzl8a)" xlink:href="#f3dbwmfktb"/>
                            <use fill="#FFF" xlink:href="#f3dbwmfktb"/>
                        </g>
                        <path fill="#FAFBFD" d="M20 0h495c11.046 0 20 8.954 20 20v10H0V20C0 8.954 8.954 0 20 0z"/>
                        <rect width="475" height="155" x="30" y="60" fill="#ECF0FB" rx="20"/>
                        <path fill="#FFF" d="M280.867 106.733l31.791 63.584c1.482 2.964.28 6.568-2.683 8.05-.833.416-1.752.633-2.683.633h-63.584c-3.314 0-6-2.686-6-6 0-.931.217-1.85.634-2.683l31.791-63.584c1.482-2.964 5.086-4.165 8.05-2.683 1.161.58 2.103 1.522 2.684 2.683z" transform="rotate(90 275.5 137.5)"/>
                        <rect width="374" height="6" x="131" y="245" fill="#ECF0FB" rx="3"/>
                        <rect width="404" height="6" x="101" y="261" fill="#ECF0FB" rx="3"/>
                        <rect width="434" height="6" x="71" y="278" fill="#ECF0FB" rx="3"/>
                        <rect width="475" height="6" x="30" y="295" fill="#ECF0FB" rx="3"/>
                        <circle cx="181" cy="264" r="4" fill="#F1B2A3"/>
                        <circle cx="255" cy="281" r="4" fill="#9C91DB"/>
                        <circle cx="365" cy="281" r="4" fill="#A0D4D3"/>
                        <circle cx="255" cy="264" r="4" fill="#C3E2EF"/>
                        <path stroke="#ECF0FB" stroke-dasharray="6" stroke-linecap="round" stroke-linejoin="round" d="M30 233L505 233"/>
                        <circle cx="26.062" cy="15" r="6" fill="#ECF0FB"/>
                        <circle cx="48.062" cy="15" r="6" fill="#ECF0FB"/>
                        <circle cx="70.062" cy="15" r="6" fill="#ECF0FB"/>
                    </g>
                </g>
            </g>
        </g>
    </g>
</svg>
